<svg xmlns="http://www.w3.org/2000/svg" xmlns:xlink="http://www.w3.org/1999/xlink" width="1920" zoomAndPan="magnify" viewBox="0 0 1440 809.999993" height="1080" preserveAspectRatio="xMidYMid meet" version="1.0"><defs><clipPath id="116ba2c64a"><path d="M 597 374.914062 L 652.085938 374.914062 L 652.085938 435.148438 L 597 435.148438 Z M 597 374.914062 " clip-rule="nonzero"/></clipPath><clipPath id="299513b080"><path d="M 621.035156 435.085938 C 620.953125 435.085938 620.863281 435.078125 620.78125 435.070312 C 620.429688 435.046875 620.082031 434.867188 619.890625 434.605469 C 619.730469 434.394531 619.671875 434.140625 619.722656 433.886719 C 619.777344 433.632812 619.964844 433.40625 620.144531 433.179688 C 620.234375 433.074219 620.339844 432.941406 620.367188 432.875 C 620.789062 431.808594 621.019531 430.636719 621.253906 429.339844 C 621.34375 428.757812 621.335938 428.164062 621.320312 427.539062 C 621.3125 427.082031 621.304688 426.601562 621.34375 426.132812 C 621.351562 425.898438 621.328125 425.636719 621.304688 425.367188 C 621.277344 425.007812 621.246094 424.632812 621.277344 424.257812 C 621.3125 423.574219 621.195312 422.882812 621.058594 422.238281 C 620.992188 421.804688 620.953125 421.390625 620.925781 420.984375 C 620.886719 420.574219 620.847656 420.144531 620.78125 419.742188 C 620.652344 419.074219 620.5625 418.300781 620.464844 417.492188 C 620.316406 416.253906 620.167969 414.976562 619.875 413.996094 C 619.613281 412.796875 619.191406 411.691406 618.847656 410.867188 C 618.539062 409.886719 618.269531 409.535156 618.082031 409.023438 C 617.699219 407.980469 617.300781 406.910156 616.777344 405.917969 L 616.761719 405.894531 L 616.582031 405.386719 C 616.355469 404.742188 616.117188 404.074219 615.816406 403.457031 C 615.628906 403.128906 615.441406 402.769531 615.261719 402.414062 C 614.976562 401.851562 614.675781 401.269531 614.316406 400.75 C 613.085938 399.234375 611.820312 397.894531 610.460938 396.664062 C 609.816406 396.011719 609.132812 395.386719 608.464844 394.796875 L 607.972656 394.347656 C 607.769531 394.179688 607.527344 394.015625 607.28125 393.84375 C 607.042969 393.679688 606.800781 393.511719 606.570312 393.324219 C 605.945312 392.726562 605.332031 392.261719 604.679688 391.773438 C 604.46875 391.617188 604.257812 391.457031 604.050781 391.292969 C 603.089844 390.429688 602 389.726562 600.953125 389.050781 C 600.582031 388.820312 600.222656 388.578125 599.863281 388.339844 C 599.367188 388.015625 599.167969 387.527344 599.308594 387.046875 C 599.464844 386.53125 599.992188 386.171875 600.589844 386.171875 C 600.644531 386.171875 600.695312 386.171875 600.75 386.179688 C 601.050781 386.207031 601.355469 386.320312 601.65625 386.523438 C 602.363281 387.003906 603.007812 387.558594 603.492188 387.984375 C 604.0625 388.398438 604.597656 388.871094 605.082031 389.320312 L 605.21875 389.417969 C 605.675781 389.761719 606.148438 390.125 606.578125 390.535156 C 607.160156 391.089844 607.8125 391.585938 608.453125 392.074219 C 608.9375 392.441406 609.441406 392.824219 609.914062 393.234375 C 610.160156 393.429688 610.402344 393.640625 610.632812 393.859375 C 610.445312 393.542969 610.257812 393.222656 610.085938 392.898438 C 609.695312 392.214844 609.207031 391.546875 608.738281 390.902344 C 608.503906 390.589844 608.269531 390.265625 608.046875 389.945312 L 607.8125 389.582031 C 607.027344 388.367188 606.214844 387.101562 605.292969 385.976562 L 605.269531 385.945312 C 604.800781 385.226562 604.339844 384.625 603.875 384.09375 L 603.855469 384.0625 C 603.253906 383.214844 602.609375 382.488281 602.007812 381.820312 C 600.957031 380.492188 599.730469 379.359375 598.550781 378.304688 C 598.402344 378.144531 598.222656 378.035156 598.042969 377.90625 C 597.6875 377.671875 597.292969 377.402344 597.089844 376.9375 L 597.074219 376.910156 L 597.066406 376.878906 C 596.945312 376.390625 597.027344 375.925781 597.3125 375.558594 C 597.628906 375.152344 598.160156 374.914062 598.738281 374.914062 C 599.242188 374.914062 599.714844 375.09375 600.050781 375.429688 C 600.402344 375.777344 600.636719 376.1875 600.863281 376.585938 C 601.027344 376.878906 601.183594 377.15625 601.378906 377.394531 C 601.625 377.75 601.910156 378.046875 602.160156 378.296875 C 602.464844 378.597656 602.714844 378.925781 602.953125 379.242188 C 603.15625 379.503906 603.34375 379.75 603.5625 379.984375 L 603.589844 380.011719 C 604.167969 380.792969 604.722656 381.566406 605.277344 382.339844 C 605.765625 383.011719 606.253906 383.695312 606.757812 384.378906 C 606.863281 384.519531 606.980469 384.648438 607.117188 384.789062 C 607.25 384.933594 607.378906 385.070312 607.5 385.226562 L 607.515625 385.242188 L 607.527344 385.261719 C 607.890625 385.871094 608.285156 386.425781 608.738281 386.972656 L 608.75 386.996094 L 608.765625 387.019531 C 609.179688 387.679688 609.628906 388.339844 610.054688 388.976562 C 610.386719 389.472656 610.722656 389.957031 611.046875 390.453125 C 611.398438 391.0625 611.742188 391.636719 612.097656 392.222656 C 612.898438 393.566406 613.722656 394.945312 614.4375 396.378906 C 615.867188 398.671875 617.0625 401.269531 618.015625 403.359375 C 619.140625 405.785156 621.628906 411.84375 622.167969 414.394531 C 622.230469 414.679688 622.3125 414.957031 622.386719 415.234375 C 622.664062 416.296875 622.957031 417.402344 623.105469 418.539062 C 623.277344 419.253906 623.375 420.175781 623.464844 420.992188 C 623.496094 421.25 623.519531 421.496094 623.542969 421.714844 C 623.738281 422.664062 623.789062 423.679688 623.839844 424.667969 L 623.847656 424.824219 C 623.925781 426.175781 623.929688 427.421875 623.722656 428.9375 C 623.804688 428.816406 623.886719 428.6875 623.96875 428.554688 C 624.113281 428.335938 624.253906 428.109375 624.410156 427.921875 C 624.523438 427.78125 624.667969 427.609375 624.808594 427.421875 C 625.273438 426.835938 625.859375 426.109375 626.1875 425.605469 C 626.339844 425.402344 626.683594 424.929688 627.066406 424.421875 C 627.621094 423.671875 628.25 422.816406 628.425781 422.5625 C 628.582031 422.304688 628.792969 421.929688 628.988281 421.5625 C 629.121094 421.316406 629.242188 421.082031 629.355469 420.894531 C 629.59375 420.46875 629.847656 420.125 630.089844 419.785156 C 630.390625 419.375 630.667969 418.984375 630.914062 418.480469 L 630.929688 418.449219 L 630.945312 418.429688 C 631.507812 417.601562 632.015625 416.734375 632.503906 415.894531 C 632.667969 415.609375 632.789062 415.324219 632.910156 415.015625 C 633.015625 414.769531 633.117188 414.511719 633.246094 414.257812 C 633.5625 413.679688 633.882812 413.179688 634.230469 412.644531 L 634.492188 412.234375 C 635.023438 411.152344 635.847656 410.289062 636.652344 409.457031 C 636.847656 409.257812 637.035156 409.0625 637.222656 408.859375 L 637.25 408.828125 C 638.429688 407.816406 639.808594 406.976562 641.015625 406.269531 L 641.039062 406.257812 L 641.0625 406.25 C 642.972656 405.46875 644.578125 404.839844 646.332031 404.464844 C 646.695312 404.34375 647.070312 404.253906 647.429688 404.15625 C 647.789062 404.058594 648.171875 403.96875 648.53125 403.847656 C 648.890625 403.707031 649.558594 403.414062 649.941406 403.261719 C 650.585938 403.007812 651.964844 402.738281 652.050781 402.910156 C 652.175781 403.195312 651.898438 403.324219 651.710938 403.644531 L 651.6875 403.683594 C 651.546875 403.871094 651.410156 404.027344 651.285156 404.1875 C 650.984375 404.546875 650.820312 404.996094 650.683594 405.414062 C 650.519531 405.949219 650.40625 406.25 650.226562 406.652344 C 650.113281 406.902344 650.007812 407.148438 649.890625 407.386719 C 648.367188 410.574219 646.257812 412.472656 643.265625 413.351562 C 642.375 413.589844 641.4375 413.695312 640.527344 413.800781 C 639.457031 413.921875 638.347656 414.039062 637.347656 414.386719 C 635.5625 415.25 634.167969 416.515625 633.433594 417.949219 C 633.082031 418.535156 632.75 419.097656 632.421875 419.664062 C 631.84375 420.664062 631.242188 421.699219 630.589844 422.6875 C 630.15625 423.476562 627.320312 427.472656 626.929688 427.992188 C 626.472656 428.5625 626.015625 429.28125 625.574219 429.976562 C 625.304688 430.40625 625.050781 430.804688 624.792969 431.171875 C 624.578125 431.476562 624.335938 431.761719 624.105469 432.039062 C 623.832031 432.363281 623.585938 432.664062 623.363281 432.992188 C 623.144531 433.269531 622.957031 433.519531 622.769531 433.757812 C 622.542969 434.050781 622.320312 434.351562 622.078125 434.644531 C 621.824219 434.9375 621.488281 435.078125 621.035156 435.078125 " clip-rule="nonzero"/></clipPath><clipPath id="3d754cfd49"><path d="M 0 0.914062 L 55.085938 0.914062 L 55.085938 61.121094 L 0 61.121094 Z M 0 0.914062 " clip-rule="nonzero"/></clipPath><clipPath id="fb3eff1a4c"><path d="M 24.035156 61.085938 C 23.953125 61.085938 23.863281 61.078125 23.78125 61.070312 C 23.429688 61.046875 23.082031 60.867188 22.890625 60.605469 C 22.730469 60.394531 22.671875 60.140625 22.722656 59.886719 C 22.777344 59.632812 22.964844 59.40625 23.144531 59.179688 C 23.234375 59.074219 23.339844 58.941406 23.367188 58.875 C 23.789062 57.808594 24.019531 56.636719 24.253906 55.339844 C 24.34375 54.757812 24.335938 54.164062 24.320312 53.539062 C 24.3125 53.082031 24.304688 52.601562 24.34375 52.132812 C 24.351562 51.898438 24.328125 51.636719 24.304688 51.367188 C 24.277344 51.007812 24.246094 50.632812 24.277344 50.257812 C 24.3125 49.574219 24.195312 48.882812 24.058594 48.238281 C 23.992188 47.804688 23.953125 47.390625 23.925781 46.984375 C 23.886719 46.574219 23.847656 46.144531 23.78125 45.742188 C 23.652344 45.074219 23.5625 44.300781 23.464844 43.492188 C 23.316406 42.253906 23.167969 40.976562 22.875 39.996094 C 22.613281 38.796875 22.191406 37.691406 21.847656 36.867188 C 21.539062 35.886719 21.269531 35.535156 21.082031 35.023438 C 20.699219 33.980469 20.300781 32.910156 19.777344 31.917969 L 19.761719 31.894531 L 19.582031 31.386719 C 19.355469 30.742188 19.117188 30.074219 18.816406 29.457031 C 18.628906 29.128906 18.441406 28.769531 18.261719 28.414062 C 17.976562 27.851562 17.675781 27.269531 17.316406 26.75 C 16.085938 25.234375 14.820312 23.894531 13.460938 22.664062 C 12.816406 22.011719 12.132812 21.386719 11.464844 20.796875 L 10.972656 20.347656 C 10.769531 20.179688 10.527344 20.015625 10.28125 19.84375 C 10.042969 19.679688 9.800781 19.511719 9.570312 19.324219 C 8.945312 18.726562 8.332031 18.261719 7.679688 17.773438 C 7.46875 17.617188 7.257812 17.457031 7.050781 17.292969 C 6.089844 16.429688 5 15.726562 3.953125 15.050781 C 3.582031 14.820312 3.222656 14.578125 2.863281 14.339844 C 2.367188 14.015625 2.167969 13.527344 2.308594 13.046875 C 2.464844 12.53125 2.992188 12.171875 3.589844 12.171875 C 3.644531 12.171875 3.695312 12.171875 3.75 12.179688 C 4.050781 12.207031 4.355469 12.320312 4.65625 12.523438 C 5.363281 13.003906 6.007812 13.558594 6.492188 13.984375 C 7.0625 14.398438 7.597656 14.871094 8.082031 15.320312 L 8.21875 15.417969 C 8.675781 15.761719 9.148438 16.125 9.578125 16.535156 C 10.160156 17.089844 10.8125 17.585938 11.453125 18.074219 C 11.9375 18.441406 12.441406 18.824219 12.914062 19.234375 C 13.160156 19.429688 13.402344 19.640625 13.632812 19.859375 C 13.445312 19.542969 13.257812 19.222656 13.085938 18.898438 C 12.695312 18.214844 12.207031 17.546875 11.738281 16.902344 C 11.503906 16.589844 11.269531 16.265625 11.046875 15.945312 L 10.8125 15.582031 C 10.027344 14.367188 9.214844 13.101562 8.292969 11.976562 L 8.269531 11.945312 C 7.800781 11.226562 7.339844 10.625 6.875 10.09375 L 6.855469 10.0625 C 6.253906 9.214844 5.609375 8.488281 5.007812 7.820312 C 3.957031 6.492188 2.730469 5.359375 1.550781 4.304688 C 1.402344 4.144531 1.222656 4.035156 1.042969 3.90625 C 0.6875 3.671875 0.292969 3.402344 0.0898438 2.9375 L 0.0742188 2.910156 L 0.0664062 2.878906 C -0.0546875 2.390625 0.0273438 1.925781 0.3125 1.558594 C 0.628906 1.152344 1.160156 0.914062 1.738281 0.914062 C 2.242188 0.914062 2.714844 1.09375 3.050781 1.429688 C 3.402344 1.777344 3.636719 2.1875 3.863281 2.585938 C 4.027344 2.878906 4.183594 3.15625 4.378906 3.394531 C 4.625 3.75 4.910156 4.046875 5.160156 4.296875 C 5.464844 4.597656 5.714844 4.925781 5.953125 5.242188 C 6.15625 5.503906 6.34375 5.75 6.5625 5.984375 L 6.589844 6.011719 C 7.167969 6.792969 7.722656 7.566406 8.277344 8.339844 C 8.765625 9.011719 9.253906 9.695312 9.757812 10.378906 C 9.863281 10.519531 9.980469 10.648438 10.117188 10.789062 C 10.25 10.933594 10.378906 11.070312 10.5 11.226562 L 10.515625 11.242188 L 10.527344 11.261719 C 10.890625 11.871094 11.285156 12.425781 11.738281 12.972656 L 11.75 12.996094 L 11.765625 13.019531 C 12.179688 13.679688 12.628906 14.339844 13.054688 14.976562 C 13.386719 15.472656 13.722656 15.957031 14.046875 16.453125 C 14.398438 17.0625 14.742188 17.636719 15.097656 18.222656 C 15.898438 19.566406 16.722656 20.945312 17.4375 22.378906 C 18.867188 24.671875 20.0625 27.269531 21.015625 29.359375 C 22.140625 31.785156 24.628906 37.84375 25.167969 40.394531 C 25.230469 40.679688 25.3125 40.957031 25.386719 41.234375 C 25.664062 42.296875 25.957031 43.402344 26.105469 44.539062 C 26.277344 45.253906 26.375 46.175781 26.464844 46.992188 C 26.496094 47.25 26.519531 47.496094 26.542969 47.714844 C 26.738281 48.664062 26.789062 49.679688 26.839844 50.667969 L 26.847656 50.824219 C 26.925781 52.175781 26.929688 53.421875 26.722656 54.9375 C 26.804688 54.816406 26.886719 54.6875 26.96875 54.554688 C 27.113281 54.335938 27.253906 54.109375 27.410156 53.921875 C 27.523438 53.78125 27.667969 53.609375 27.808594 53.421875 C 28.273438 52.835938 28.859375 52.109375 29.1875 51.605469 C 29.339844 51.402344 29.683594 50.929688 30.066406 50.421875 C 30.621094 49.671875 31.25 48.816406 31.425781 48.5625 C 31.582031 48.304688 31.792969 47.929688 31.988281 47.5625 C 32.121094 47.316406 32.242188 47.082031 32.355469 46.894531 C 32.59375 46.46875 32.847656 46.125 33.089844 45.785156 C 33.390625 45.375 33.667969 44.984375 33.914062 44.480469 L 33.929688 44.449219 L 33.945312 44.429688 C 34.507812 43.601562 35.015625 42.734375 35.503906 41.894531 C 35.667969 41.609375 35.789062 41.324219 35.910156 41.015625 C 36.015625 40.769531 36.117188 40.511719 36.246094 40.257812 C 36.5625 39.679688 36.882812 39.179688 37.230469 38.644531 L 37.492188 38.234375 C 38.023438 37.152344 38.847656 36.289062 39.652344 35.457031 C 39.847656 35.257812 40.035156 35.0625 40.222656 34.859375 L 40.25 34.828125 C 41.429688 33.816406 42.808594 32.976562 44.015625 32.269531 L 44.039062 32.257812 L 44.0625 32.25 C 45.972656 31.46875 47.578125 30.839844 49.332031 30.464844 C 49.695312 30.34375 50.070312 30.253906 50.429688 30.15625 C 50.789062 30.058594 51.171875 29.96875 51.53125 29.847656 C 51.890625 29.707031 52.558594 29.414062 52.941406 29.261719 C 53.585938 29.007812 54.964844 28.738281 55.050781 28.910156 C 55.175781 29.195312 54.898438 29.324219 54.710938 29.644531 L 54.6875 29.683594 C 54.546875 29.871094 54.410156 30.027344 54.285156 30.1875 C 53.984375 30.546875 53.820312 30.996094 53.683594 31.414062 C 53.519531 31.949219 53.40625 32.25 53.226562 32.652344 C 53.113281 32.902344 53.007812 33.148438 52.890625 33.386719 C 51.367188 36.574219 49.257812 38.472656 46.265625 39.351562 C 45.375 39.589844 44.4375 39.695312 43.527344 39.800781 C 42.457031 39.921875 41.347656 40.039062 40.347656 40.386719 C 38.5625 41.25 37.167969 42.515625 36.433594 43.949219 C 36.082031 44.535156 35.75 45.097656 35.421875 45.664062 C 34.84375 46.664062 34.242188 47.699219 33.589844 48.6875 C 33.15625 49.476562 30.320312 53.472656 29.929688 53.992188 C 29.472656 54.5625 29.015625 55.28125 28.574219 55.976562 C 28.304688 56.40625 28.050781 56.804688 27.792969 57.171875 C 27.578125 57.476562 27.335938 57.761719 27.105469 58.039062 C 26.832031 58.363281 26.585938 58.664062 26.363281 58.992188 C 26.144531 59.269531 25.957031 59.519531 25.769531 59.757812 C 25.542969 60.050781 25.320312 60.351562 25.078125 60.644531 C 24.824219 60.9375 24.488281 61.078125 24.035156 61.078125 " clip-rule="nonzero"/></clipPath><clipPath id="ef6a1f9a93"><rect x="0" width="56" y="0" height="62"/></clipPath><clipPath id="38ec7f989b"><path d="M 691.734375 382.21875 L 727.355469 382.21875 L 727.355469 427.777344 L 691.734375 427.777344 Z M 691.734375 382.21875 " clip-rule="nonzero"/></clipPath><clipPath id="27f8690cab"><path d="M 709.363281 397.28125 C 716.78125 397.28125 717.277344 386.105469 709.867188 385.675781 C 709.664062 385.664062 709.460938 385.664062 709.257812 385.664062 C 703.925781 385.664062 699.871094 390.199219 698.59375 397.28125 Z M 727.003906 411.117188 C 727.148438 411.167969 727.222656 411.320312 727.191406 411.460938 C 724.84375 422.121094 718.980469 427.761719 710.136719 427.761719 C 699.316406 427.761719 691.753906 418.765625 691.753906 406.039062 C 691.761719 392.34375 700.191406 382.242188 711.652344 382.242188 C 719.691406 382.242188 725.578125 388.527344 725.65625 397.28125 C 725.65625 398.816406 724.410156 400.0625 722.871094 400.0625 L 700.417969 400.0625 C 699.15625 400.0625 698.128906 401.089844 698.128906 402.351562 L 698.128906 402.363281 C 698.128906 413.824219 704.097656 422.253906 712.132812 422.253906 C 718.492188 422.253906 722.601562 418.386719 724.621094 410.5625 C 724.664062 410.390625 724.84375 410.292969 725.007812 410.351562 Z M 727.003906 411.117188 " clip-rule="nonzero"/></clipPath><clipPath id="9514df2dea"><path d="M 0.734375 0.21875 L 36.355469 0.21875 L 36.355469 45.777344 L 0.734375 45.777344 Z M 0.734375 0.21875 " clip-rule="nonzero"/></clipPath><clipPath id="ce353c240b"><path d="M 18.363281 15.28125 C 25.78125 15.28125 26.277344 4.105469 18.867188 3.675781 C 18.664062 3.664062 18.460938 3.664062 18.257812 3.664062 C 12.925781 3.664062 8.871094 8.199219 7.59375 15.28125 Z M 36.003906 29.117188 C 36.148438 29.167969 36.222656 29.320312 36.191406 29.460938 C 33.84375 40.121094 27.980469 45.761719 19.136719 45.761719 C 8.316406 45.761719 0.753906 36.765625 0.753906 24.039062 C 0.761719 10.34375 9.191406 0.242188 20.652344 0.242188 C 28.691406 0.242188 34.578125 6.527344 34.65625 15.28125 C 34.65625 16.816406 33.410156 18.0625 31.871094 18.0625 L 9.417969 18.0625 C 8.15625 18.0625 7.128906 19.089844 7.128906 20.351562 L 7.128906 20.363281 C 7.128906 31.824219 13.097656 40.253906 21.132812 40.253906 C 27.492188 40.253906 31.601562 36.386719 33.621094 28.5625 C 33.664062 28.390625 33.84375 28.292969 34.007812 28.351562 Z M 36.003906 29.117188 " clip-rule="nonzero"/></clipPath><clipPath id="b217c07c64"><rect x="0" width="37" y="0" height="46"/></clipPath><clipPath id="bc81e27feb"><path d="M 727.355469 383 L 759.039062 383 L 759.039062 427 L 727.355469 427 Z M 727.355469 383 " clip-rule="nonzero"/></clipPath><clipPath id="c604d36e73"><path d="M 730.46875 390.679688 C 729.507812 387.515625 728.625 385.371094 727.550781 383.496094 C 727.441406 383.292969 727.582031 383.042969 727.816406 383.042969 L 736.078125 383.042969 C 736.289062 383.042969 736.433594 383.253906 736.355469 383.457031 C 735.53125 385.863281 736.632812 388.28125 737.308594 390.6875 L 744.042969 413.890625 C 744.328125 414.875 745.71875 414.875 746.003906 413.890625 L 752.738281 390.6875 C 753.410156 388.28125 754.523438 385.871094 753.691406 383.457031 C 753.621094 383.253906 753.757812 383.042969 753.96875 383.042969 L 758.730469 383.042969 C 758.960938 383.042969 759.105469 383.292969 758.992188 383.496094 C 757.917969 385.371094 757.035156 387.515625 756.074219 390.679688 L 746.308594 424.257812 C 746.039062 425.269531 745.941406 425.945312 746.0625 426.613281 C 746.097656 426.792969 745.957031 426.964844 745.769531 426.964844 L 740.804688 426.964844 C 740.617188 426.964844 740.472656 426.792969 740.511719 426.613281 C 740.640625 425.945312 740.535156 425.277344 740.265625 424.257812 Z M 730.46875 390.679688 " clip-rule="nonzero"/></clipPath><clipPath id="48c0ab1355"><path d="M 0.355469 0.0390625 L 32.039062 0.0390625 L 32.039062 44 L 0.355469 44 Z M 0.355469 0.0390625 " clip-rule="nonzero"/></clipPath><clipPath id="b5d661c970"><path d="M 3.46875 7.679688 C 2.507812 4.515625 1.625 2.371094 0.550781 0.496094 C 0.441406 0.292969 0.582031 0.0429688 0.816406 0.0429688 L 9.078125 0.0429688 C 9.289062 0.0429688 9.433594 0.253906 9.355469 0.457031 C 8.53125 2.863281 9.632812 5.28125 10.308594 7.6875 L 17.042969 30.890625 C 17.328125 31.875 18.71875 31.875 19.003906 30.890625 L 25.738281 7.6875 C 26.410156 5.28125 27.523438 2.871094 26.691406 0.457031 C 26.621094 0.253906 26.757812 0.0429688 26.96875 0.0429688 L 31.730469 0.0429688 C 31.960938 0.0429688 32.105469 0.292969 31.992188 0.496094 C 30.917969 2.371094 30.035156 4.515625 29.074219 7.679688 L 19.308594 41.257812 C 19.039062 42.269531 18.941406 42.945312 19.0625 43.613281 C 19.097656 43.792969 18.957031 43.964844 18.769531 43.964844 L 13.804688 43.964844 C 13.617188 43.964844 13.472656 43.792969 13.511719 43.613281 C 13.640625 42.945312 13.535156 42.277344 13.265625 41.257812 Z M 3.46875 7.679688 " clip-rule="nonzero"/></clipPath><clipPath id="bcc00291ca"><rect x="0" width="33" y="0" height="44"/></clipPath><clipPath id="54b497bf75"><path d="M 763.800781 382.425781 L 773.535156 382.425781 L 773.535156 427 L 763.800781 427 Z M 763.800781 382.425781 " clip-rule="nonzero"/></clipPath><clipPath id="6dbf4840f0"><path d="M 771.546875 382.519531 C 771.742188 382.398438 771.996094 382.542969 771.996094 382.773438 L 771.996094 419.324219 C 771.996094 421.796875 772.207031 424.136719 773.371094 426.53125 C 773.46875 426.726562 773.332031 426.957031 773.105469 426.957031 L 764.363281 426.957031 C 764.144531 426.957031 764.007812 426.726562 764.097656 426.53125 C 765.261719 424.136719 765.472656 421.796875 765.472656 419.324219 L 765.472656 394.894531 C 765.472656 392.351562 765.246094 389.960938 764.007812 387.5 C 763.941406 387.363281 763.988281 387.199219 764.113281 387.117188 Z M 771.546875 382.519531 " clip-rule="nonzero"/></clipPath><clipPath id="8af5c73f69"><path d="M 0.921875 0.425781 L 10.519531 0.425781 L 10.519531 44.960938 L 0.921875 44.960938 Z M 0.921875 0.425781 " clip-rule="nonzero"/></clipPath><clipPath id="a1333f0c60"><path d="M 8.546875 0.519531 C 8.742188 0.398438 8.996094 0.542969 8.996094 0.773438 L 8.996094 37.324219 C 8.996094 39.796875 9.207031 42.136719 10.371094 44.53125 C 10.46875 44.726562 10.332031 44.957031 10.105469 44.957031 L 1.363281 44.957031 C 1.144531 44.957031 1.007812 44.726562 1.097656 44.53125 C 2.261719 42.136719 2.472656 39.796875 2.472656 37.324219 L 2.472656 12.894531 C 2.472656 10.351562 2.246094 7.960938 1.007812 5.5 C 0.941406 5.363281 0.988281 5.199219 1.113281 5.117188 Z M 8.546875 0.519531 " clip-rule="nonzero"/></clipPath><clipPath id="75aea0de48"><rect x="0" width="11" y="0" height="45"/></clipPath><clipPath id="6ae41587c0"><path d="M 778.710938 382.21875 L 814.332031 382.21875 L 814.332031 427.777344 L 778.710938 427.777344 Z M 778.710938 382.21875 " clip-rule="nonzero"/></clipPath><clipPath id="2258e5c681"><path d="M 796.371094 397.28125 C 803.789062 397.28125 804.285156 386.105469 796.875 385.675781 C 796.671875 385.664062 796.46875 385.664062 796.265625 385.664062 C 790.933594 385.664062 786.878906 390.199219 785.601562 397.28125 Z M 814.003906 411.117188 C 814.148438 411.167969 814.230469 411.320312 814.191406 411.46875 C 811.84375 422.121094 805.980469 427.761719 797.136719 427.761719 C 786.316406 427.761719 778.753906 418.765625 778.753906 406.039062 C 778.761719 392.34375 787.199219 382.242188 798.652344 382.242188 C 806.691406 382.242188 812.578125 388.527344 812.65625 397.28125 C 812.65625 398.816406 811.410156 400.0625 809.871094 400.0625 L 787.417969 400.0625 C 786.15625 400.0625 785.128906 401.089844 785.128906 402.351562 L 785.128906 402.363281 C 785.128906 413.824219 791.097656 422.253906 799.132812 422.253906 C 805.492188 422.253906 809.601562 418.386719 811.621094 410.570312 C 811.664062 410.398438 811.84375 410.300781 812.015625 410.359375 Z M 814.003906 411.117188 " clip-rule="nonzero"/></clipPath><clipPath id="d44cf0256c"><path d="M 0.710938 0.21875 L 36.320312 0.21875 L 36.320312 45.777344 L 0.710938 45.777344 Z M 0.710938 0.21875 " clip-rule="nonzero"/></clipPath><clipPath id="cf70bcad3a"><path d="M 18.371094 15.28125 C 25.789062 15.28125 26.285156 4.105469 18.875 3.675781 C 18.671875 3.664062 18.46875 3.664062 18.265625 3.664062 C 12.933594 3.664062 8.878906 8.199219 7.601562 15.28125 Z M 36.003906 29.117188 C 36.148438 29.167969 36.230469 29.320312 36.191406 29.46875 C 33.84375 40.121094 27.980469 45.761719 19.136719 45.761719 C 8.316406 45.761719 0.753906 36.765625 0.753906 24.039062 C 0.761719 10.34375 9.199219 0.242188 20.652344 0.242188 C 28.691406 0.242188 34.578125 6.527344 34.65625 15.28125 C 34.65625 16.816406 33.410156 18.0625 31.871094 18.0625 L 9.417969 18.0625 C 8.15625 18.0625 7.128906 19.089844 7.128906 20.351562 L 7.128906 20.363281 C 7.128906 31.824219 13.097656 40.253906 21.132812 40.253906 C 27.492188 40.253906 31.601562 36.386719 33.621094 28.570312 C 33.664062 28.398438 33.84375 28.300781 34.015625 28.359375 Z M 36.003906 29.117188 " clip-rule="nonzero"/></clipPath><clipPath id="7571e5dac9"><rect x="0" width="37" y="0" height="46"/></clipPath><clipPath id="fea9f0cb16"><path d="M 817.851562 382.21875 L 839.390625 382.21875 L 839.390625 427 L 817.851562 427 Z M 817.851562 382.21875 " clip-rule="nonzero"/></clipPath><clipPath id="b35ae0cf2f"><path d="M 825.945312 382.796875 L 825.945312 386.464844 C 825.945312 387.710938 827.496094 388.265625 828.300781 387.304688 C 830.960938 384.164062 834.132812 382.242188 836.847656 382.242188 L 838.925781 382.242188 C 839.097656 382.242188 839.234375 382.378906 839.234375 382.550781 L 839.234375 391.511719 C 839.234375 391.722656 839.023438 391.871094 838.828125 391.804688 C 836.757812 391.101562 834.335938 390.679688 832.394531 390.679688 C 828.914062 390.679688 826.695312 392.015625 825.960938 394.609375 C 825.953125 394.640625 825.945312 394.675781 825.945312 394.707031 L 825.945312 419.324219 C 825.945312 421.796875 826.15625 424.121094 827.308594 426.515625 C 827.40625 426.726562 827.265625 426.964844 827.039062 426.964844 L 818.332031 426.964844 C 818.097656 426.964844 817.957031 426.726562 818.0625 426.515625 C 819.21875 424.128906 819.425781 421.796875 819.425781 419.324219 L 819.425781 394.894531 C 819.425781 392.359375 819.203125 389.96875 817.964844 387.507812 C 817.890625 387.363281 817.933594 387.191406 818.078125 387.109375 L 825.480469 382.535156 C 825.691406 382.40625 825.953125 382.558594 825.953125 382.796875 " clip-rule="nonzero"/></clipPath><clipPath id="2e23fb3c1a"><path d="M 0.851562 0.21875 L 22.28125 0.21875 L 22.28125 45 L 0.851562 45 Z M 0.851562 0.21875 " clip-rule="nonzero"/></clipPath><clipPath id="f0be77e62b"><path d="M 8.945312 0.796875 L 8.945312 4.464844 C 8.945312 5.710938 10.496094 6.265625 11.300781 5.304688 C 13.960938 2.164062 17.132812 0.242188 19.847656 0.242188 L 21.925781 0.242188 C 22.097656 0.242188 22.234375 0.378906 22.234375 0.550781 L 22.234375 9.511719 C 22.234375 9.722656 22.023438 9.871094 21.828125 9.804688 C 19.757812 9.101562 17.335938 8.679688 15.394531 8.679688 C 11.914062 8.679688 9.695312 10.015625 8.960938 12.609375 C 8.953125 12.640625 8.945312 12.675781 8.945312 12.707031 L 8.945312 37.324219 C 8.945312 39.796875 9.15625 42.121094 10.308594 44.515625 C 10.40625 44.726562 10.265625 44.964844 10.039062 44.964844 L 1.332031 44.964844 C 1.097656 44.964844 0.957031 44.726562 1.0625 44.515625 C 2.21875 42.128906 2.425781 39.796875 2.425781 37.324219 L 2.425781 12.894531 C 2.425781 10.359375 2.203125 7.96875 0.964844 5.507812 C 0.890625 5.363281 0.933594 5.191406 1.078125 5.109375 L 8.480469 0.535156 C 8.691406 0.40625 8.953125 0.558594 8.953125 0.796875 " clip-rule="nonzero"/></clipPath><clipPath id="109b145de9"><rect x="0" width="23" y="0" height="45"/></clipPath><clipPath id="b059dac5c8"><path d="M 666.882812 383 L 687.800781 383 L 687.800781 427 L 666.882812 427 Z M 666.882812 383 " clip-rule="nonzero"/></clipPath><clipPath id="7bd2a404b2"><path d="M 667.199219 426.964844 C 666.972656 426.964844 666.839844 426.730469 666.9375 426.53125 C 668.097656 424.136719 668.308594 421.796875 668.308594 419.324219 L 668.308594 390.679688 C 668.308594 388.203125 668.097656 385.863281 666.9375 383.472656 C 666.839844 383.269531 666.972656 383.039062 667.199219 383.039062 L 676.5 383.039062 C 676.722656 383.039062 676.859375 383.269531 676.761719 383.472656 C 675.597656 385.863281 675.390625 388.199219 675.390625 390.679688 L 675.390625 419.488281 C 675.390625 421.257812 676.957031 422.644531 678.703125 422.382812 C 682.035156 421.878906 683.191406 420.175781 687.238281 414.664062 C 687.410156 414.433594 687.78125 414.550781 687.78125 414.84375 L 687.78125 426.664062 C 687.78125 426.828125 687.644531 426.964844 687.480469 426.964844 Z M 667.199219 426.964844 " clip-rule="nonzero"/></clipPath><clipPath id="f634393ef3"><path d="M 0.882812 0 L 21.800781 0 L 21.800781 44 L 0.882812 44 Z M 0.882812 0 " clip-rule="nonzero"/></clipPath><clipPath id="7aef082beb"><path d="M 1.199219 43.964844 C 0.972656 43.964844 0.839844 43.730469 0.9375 43.53125 C 2.097656 41.136719 2.308594 38.796875 2.308594 36.324219 L 2.308594 7.679688 C 2.308594 5.203125 2.097656 2.863281 0.9375 0.472656 C 0.839844 0.269531 0.972656 0.0390625 1.199219 0.0390625 L 10.5 0.0390625 C 10.722656 0.0390625 10.859375 0.269531 10.761719 0.472656 C 9.597656 2.863281 9.390625 5.199219 9.390625 7.679688 L 9.390625 36.488281 C 9.390625 38.257812 10.957031 39.644531 12.703125 39.382812 C 16.035156 38.878906 17.191406 37.175781 21.238281 31.664062 C 21.410156 31.433594 21.78125 31.550781 21.78125 31.84375 L 21.78125 43.664062 C 21.78125 43.828125 21.644531 43.964844 21.480469 43.964844 Z M 1.199219 43.964844 " clip-rule="nonzero"/></clipPath><clipPath id="dd7ec48d84"><rect x="0" width="22" y="0" height="44"/></clipPath></defs><g clip-path="url(#116ba2c64a)"><g clip-path="url(#299513b080)"><g transform="matrix(1, 0, 0, 1, 597, 374)"><g clip-path="url(#ef6a1f9a93)"><g clip-path="url(#3d754cfd49)"><g clip-path="url(#fb3eff1a4c)"><path fill="#ffffff" d="M 0.015625 0.914062 L 55.085938 0.914062 L 55.085938 61.148438 L 0.015625 61.148438 Z M 0.015625 0.914062 " fill-opacity="1" fill-rule="nonzero"/></g></g></g></g></g></g><g clip-path="url(#38ec7f989b)"><g clip-path="url(#27f8690cab)"><g transform="matrix(1, 0, 0, 1, 691, 382)"><g clip-path="url(#b217c07c64)"><g clip-path="url(#9514df2dea)"><g clip-path="url(#ce353c240b)"><rect x="-1007.8" width="2073.6" fill="#ffffff" height="1166.39999" y="-560.199998" fill-opacity="1"/></g></g></g></g></g></g><g clip-path="url(#bc81e27feb)"><g clip-path="url(#c604d36e73)"><g transform="matrix(1, 0, 0, 1, 727, 383)"><g clip-path="url(#bcc00291ca)"><g clip-path="url(#48c0ab1355)"><g clip-path="url(#b5d661c970)"><rect x="-1043.8" width="2073.6" fill="#ffffff" height="1166.39999" y="-561.199998" fill-opacity="1"/></g></g></g></g></g></g><g clip-path="url(#54b497bf75)"><g clip-path="url(#6dbf4840f0)"><g transform="matrix(1, 0, 0, 1, 763, 382)"><g clip-path="url(#75aea0de48)"><g clip-path="url(#8af5c73f69)"><g clip-path="url(#a1333f0c60)"><rect x="-1079.8" width="2073.6" fill="#ffffff" height="1166.39999" y="-560.199998" fill-opacity="1"/></g></g></g></g></g></g><g clip-path="url(#6ae41587c0)"><g clip-path="url(#2258e5c681)"><g transform="matrix(1, 0, 0, 1, 778, 382)"><g clip-path="url(#7571e5dac9)"><g clip-path="url(#d44cf0256c)"><g clip-path="url(#cf70bcad3a)"><rect x="-1094.8" width="2073.6" fill="#ffffff" height="1166.39999" y="-560.199998" fill-opacity="1"/></g></g></g></g></g></g><g clip-path="url(#fea9f0cb16)"><g clip-path="url(#b35ae0cf2f)"><g transform="matrix(1, 0, 0, 1, 817, 382)"><g clip-path="url(#109b145de9)"><g clip-path="url(#2e23fb3c1a)"><g clip-path="url(#f0be77e62b)"><rect x="-1133.8" width="2073.6" fill="#ffffff" height="1166.39999" y="-560.199998" fill-opacity="1"/></g></g></g></g></g></g><g clip-path="url(#b059dac5c8)"><g clip-path="url(#7bd2a404b2)"><g transform="matrix(1, 0, 0, 1, 666, 383)"><g clip-path="url(#dd7ec48d84)"><g clip-path="url(#f634393ef3)"><g clip-path="url(#7aef082beb)"><rect x="-982.8" width="2073.6" fill="#ffffff" height="1166.39999" y="-561.199998" fill-opacity="1"/></g></g></g></g></g></g></svg>