<?xml version="1.0" encoding="UTF-8"?>
<svg id="Capa_2" data-name="Capa 2" xmlns="http://www.w3.org/2000/svg" viewBox="0 0 467.66 116.18">
  <defs>
    <style>
      .cls-1 {
        fill: #e0d3c4;
      }
    </style>
  </defs>
  <g id="Capa_1-2" data-name="Capa 1">
    <g>
      <path class="cls-1" d="M46.38,116.18c-.16,0-.33,0-.5-.02-.67-.04-1.34-.39-1.73-.9-.31-.41-.42-.9-.32-1.39.11-.49.47-.93.82-1.36.17-.21.38-.47.43-.59.81-2.06,1.26-4.31,1.71-6.82.18-1.12.16-2.27.13-3.48-.02-.89-.03-1.81.04-2.73,0-.45-.03-.95-.07-1.48-.05-.7-.11-1.41-.05-2.15.08-1.31-.17-2.65-.42-3.9-.13-.84-.2-1.64-.27-2.42-.07-.79-.14-1.62-.27-2.4-.25-1.29-.42-2.78-.61-4.35-.29-2.39-.58-4.85-1.14-6.75-.5-2.31-1.33-4.44-1.99-6.05-.6-1.9-1.11-2.57-1.48-3.56-.74-2.01-1.5-4.09-2.52-5.99l-.03-.05-.35-.98c-.44-1.25-.9-2.54-1.47-3.72-.37-.63-.73-1.34-1.07-2.02-.56-1.09-1.13-2.21-1.83-3.21-2.38-2.92-4.82-5.51-7.44-7.89-1.24-1.26-2.57-2.45-3.84-3.61l-.96-.87c-.39-.32-.85-.63-1.33-.96-.46-.31-.93-.64-1.38-1-1.2-1.15-2.39-2.05-3.66-3-.4-.3-.81-.61-1.22-.92-1.85-1.67-3.95-3.02-5.97-4.33-.7-.45-1.41-.91-2.1-1.38-.95-.62-1.35-1.56-1.07-2.49.3-1,1.32-1.7,2.48-1.7.1,0,.2,0,.3.02.58.05,1.17.28,1.75.67,1.36.92,2.61,1.99,3.55,2.82,1.09.79,2.13,1.71,3.07,2.58l.26.19c.88.67,1.79,1.37,2.62,2.16,1.12,1.07,2.39,2.03,3.62,2.97.94.72,1.91,1.45,2.83,2.25.47.37.94.78,1.39,1.2-.37-.61-.73-1.23-1.05-1.86-.75-1.32-1.7-2.61-2.61-3.85-.45-.61-.9-1.23-1.33-1.85l-.45-.7c-1.52-2.35-3.08-4.79-4.86-6.97l-.05-.06c-.91-1.39-1.79-2.55-2.69-3.57l-.05-.07c-1.16-1.63-2.4-3.05-3.57-4.33-2.01-2.53-4.4-4.72-6.67-6.75-.3-.3-.63-.53-.99-.77-.67-.45-1.43-.97-1.82-1.87l-.03-.06v-.06c-.25-.94-.09-1.84.46-2.54C1.19.47,2.22,0,3.33,0c.97,0,1.87.36,2.54,1,.67.67,1.12,1.46,1.56,2.23.32.57.62,1.1.99,1.56.48.68,1.03,1.26,1.5,1.74.59.58,1.07,1.21,1.54,1.82.39.51.75.98,1.18,1.43l.03.03.03.04c1.12,1.5,2.19,3,3.26,4.49.94,1.31,1.88,2.62,2.85,3.94.2.27.44.52.7.79.25.26.5.53.74.83l.03.03.02.04c.7,1.17,1.47,2.25,2.34,3.3l.03.04.03.04c.8,1.28,1.66,2.55,2.49,3.78.64.95,1.28,1.9,1.91,2.86.68,1.17,1.35,2.29,2.02,3.42,1.55,2.59,3.15,5.26,4.52,8.02,2.77,4.43,5.07,9.45,6.91,13.48,2.17,4.68,6.97,16.38,8.02,21.31.12.55.28,1.08.42,1.62.54,2.06,1.1,4.19,1.39,6.39.34,1.37.53,3.15.69,4.73.05.5.1.97.15,1.4.38,1.84.48,3.8.58,5.7l.02.3c.15,2.61.16,5-.25,7.94.17-.24.33-.48.48-.73.27-.42.55-.85.85-1.22.22-.28.49-.61.77-.97.9-1.13,2.03-2.54,2.67-3.5.28-.4.95-1.3,1.69-2.3,1.08-1.45,2.29-3.1,2.62-3.58.31-.49.7-1.22,1.09-1.93.25-.47.5-.92.71-1.28.46-.82.95-1.49,1.42-2.14.57-.79,1.11-1.54,1.59-2.52l.02-.05.03-.05c1.09-1.59,2.06-3.27,3-4.89.32-.55.55-1.11.79-1.69.2-.48.4-.97.65-1.47.61-1.11,1.23-2.09,1.89-3.12l.51-.8c1.02-2.08,2.62-3.75,4.17-5.36.37-.39.74-.77,1.1-1.16l.06-.06c2.27-1.96,4.94-3.57,7.27-4.93l.05-.03.05-.02c3.7-1.51,6.8-2.72,10.18-3.45.69-.23,1.41-.41,2.11-.59.71-.18,1.44-.36,2.14-.6.69-.27,1.99-.83,2.72-1.12,1.25-.49,3.92-1.01,4.06-.67.24.55-.29.79-.65,1.42l-.05.08c-.28.37-.53.67-.78.97-.58.69-.9,1.56-1.15,2.37-.32,1.04-.54,1.61-.89,2.39-.21.47-.42.95-.65,1.42-2.94,6.15-7,9.81-12.79,11.51-1.73.46-3.54.67-5.29.86-2.07.23-4.21.47-6.14,1.13-3.45,1.66-6.14,4.11-7.57,6.88-.68,1.13-1.31,2.22-1.95,3.31-1.12,1.93-2.28,3.93-3.54,5.84-.84,1.52-6.31,9.23-7.06,10.23-.89,1.1-1.77,2.49-2.62,3.83-.52.82-1.01,1.59-1.5,2.3-.42.6-.89,1.15-1.34,1.68-.52.62-1.01,1.2-1.43,1.84-.42.53-.78,1.01-1.15,1.48-.44.57-.87,1.14-1.34,1.71-.49.57-1.14.84-2.01.84Z"/>
      <g>
        <path class="cls-1" d="M250.98,69.9c.27.1.42.39.36.67-4.53,20.57-15.85,31.46-32.92,31.46-20.89,0-35.49-17.36-35.49-41.94,0-26.42,16.28-45.94,38.41-45.94,15.52,0,26.88,12.14,27.04,29.04h0c0,2.97-2.41,5.38-5.38,5.38h-43.36c-2.44,0-4.42,1.98-4.42,4.42v.04c0,22.12,11.52,38.41,27.04,38.41,12.28,0,20.22-7.48,24.12-22.57.09-.33.44-.52.75-.4l3.85,1.44ZM216.92,43.19c14.32,0,15.27-21.57.98-22.4-.38-.02-.77-.03-1.17-.03-10.29,0-18.13,8.76-20.59,22.43h20.78Z"/>
        <path class="cls-1" d="M257.67,30.44c-1.85-6.11-3.56-10.25-5.63-13.88-.22-.39.05-.87.5-.87h15.96c.41,0,.67.41.54.79-1.6,4.65.54,9.3,1.85,13.95l13.01,44.8c.55,1.89,3.23,1.89,3.79,0l13.01-44.8c1.31-4.65,3.44-9.3,1.85-13.95-.13-.39.13-.79.54-.79h9.2c.45,0,.72.48.5.87-2.07,3.63-3.79,7.77-5.63,13.88l-18.9,64.83c-.52,1.96-.71,3.25-.47,4.54.07.36-.21.68-.57.68h-9.59c-.36,0-.63-.33-.57-.68.24-1.29.05-2.58-.47-4.54l-18.9-64.83Z"/>
        <path class="cls-1" d="M336.97,14.69c.38-.24.87.04.87.49v70.57c0,4.79.41,9.3,2.65,13.92.18.38-.08.83-.5.83h-16.9c-.42,0-.69-.44-.5-.83,2.24-4.63,2.65-9.14,2.65-13.92v-47.16c0-4.91-.43-9.53-2.83-14.28-.13-.26-.05-.59.2-.74l14.36-8.87Z"/>
        <path class="cls-1" d="M418.94,69.89c.27.1.43.4.37.68-4.53,20.57-15.85,31.45-32.92,31.45-20.89,0-35.49-17.36-35.49-41.94,0-26.42,16.28-45.94,38.41-45.94,15.52,0,26.88,12.14,27.04,29.04h0c0,2.97-2.41,5.38-5.38,5.38h-43.36c-2.44,0-4.42,1.98-4.42,4.42v.04c0,22.12,11.52,38.41,27.04,38.41,12.27,0,20.21-7.47,24.11-22.57.09-.33.44-.53.76-.4l3.84,1.44ZM384.89,43.19c14.32,0,15.27-21.57.98-22.4-.38-.02-.77-.03-1.17-.03-10.29,0-18.13,8.76-20.59,22.43h20.78Z"/>
        <path class="cls-1" d="M442,15.22v7.09c0,2.41,2.99,3.47,4.55,1.63,5.13-6.08,11.26-9.79,16.5-9.79h4.01c.33,0,.6.27.6.6v17.3c0,.41-.4.69-.79.56-3.99-1.37-8.68-2.18-12.42-2.18-6.72,0-11.01,2.58-12.42,7.59-.02.06-.03.12-.03.18v47.53c0,4.77.41,9.27,2.63,13.88.19.4-.08.86-.53.86h-16.81c-.44,0-.72-.46-.53-.86,2.23-4.61,2.63-9.11,2.63-13.88v-47.16c0-4.9-.43-9.52-2.82-14.26-.14-.28-.05-.61.21-.78l14.29-8.83c.4-.25.91.04.91.51Z"/>
        <path class="cls-1" d="M135.51,100.49c-.43,0-.7-.45-.51-.84,2.24-4.62,2.65-9.13,2.65-13.91V30.44c0-4.78-.41-9.29-2.65-13.91-.19-.39.08-.84.51-.84h17.95c.43,0,.7.45.51.84-2.24,4.62-2.65,9.13-2.65,13.91v55.63c0,3.42,3.02,6.1,6.4,5.59,6.44-.97,8.66-4.26,16.48-14.91.33-.45,1.04-.21,1.04.35v22.82c0,.32-.26.58-.58.58h-39.16Z"/>
      </g>
    </g>
  </g>
</svg>