<?xml version="1.0" encoding="UTF-8"?>
<svg id="Capa_2" data-name="Capa 2" xmlns="http://www.w3.org/2000/svg" viewBox="0 0 292.63 205.21">
  <defs>
    <style>
      .cls-1 {
        fill: #ffa456;
      }
    </style>
  </defs>
  <g id="Capa_1-2" data-name="Capa 1">
    <g>
      <g>
        <path class="cls-1" d="M102.05,176.95c.24.09.37.34.32.59-3.98,18.09-13.94,27.67-28.96,27.67-18.38,0-31.21-15.27-31.21-36.89,0-23.24,14.32-40.4,33.78-40.4,13.65,0,23.65,10.67,23.78,25.54h0c0,2.61-2.12,4.73-4.73,4.73h-38.14c-2.15,0-3.89,1.74-3.89,3.89v.03c0,19.46,10.13,33.78,23.78,33.78,10.8,0,17.78-6.58,21.21-19.85.07-.29.38-.46.66-.35l3.39,1.27ZM72.1,153.46c12.6,0,13.43-18.97.86-19.7-.34-.02-.68-.03-1.03-.03-9.05,0-15.94,7.7-18.11,19.73h18.28Z"/>
        <path class="cls-1" d="M107.94,142.25c-1.63-5.37-3.13-9.01-4.96-12.2-.2-.34.05-.77.44-.77h14.04c.36,0,.59.36.48.7-1.4,4.09.47,8.18,1.62,12.27l11.44,39.4c.48,1.67,2.84,1.67,3.33,0l11.44-39.4c1.15-4.09,3.03-8.18,1.62-12.27-.12-.34.12-.7.48-.7h8.09c.39,0,.64.42.44.77-1.82,3.19-3.33,6.83-4.96,12.2l-16.62,57.02c-.46,1.72-.63,2.86-.42,4,.06.31-.18.6-.5.6h-8.44c-.32,0-.56-.29-.5-.6.21-1.13.04-2.27-.42-4l-16.62-57.02Z"/>
        <path class="cls-1" d="M177.69,128.4c.33-.21.77.03.77.43v62.07c0,4.21.36,8.18,2.33,12.24.16.34-.07.73-.44.73h-14.86c-.37,0-.6-.39-.44-.73,1.97-4.07,2.33-8.04,2.33-12.24v-41.48c0-4.32-.38-8.38-2.49-12.56-.12-.23-.04-.52.18-.65l12.63-7.8Z"/>
        <path class="cls-1" d="M249.78,176.95c.24.09.38.35.32.6-3.98,18.09-13.94,27.66-28.96,27.66-18.38,0-31.21-15.27-31.21-36.89,0-23.24,14.32-40.4,33.78-40.4,13.65,0,23.65,10.67,23.78,25.54h0c0,2.61-2.12,4.73-4.73,4.73h-38.14c-2.15,0-3.89,1.74-3.89,3.89v.03c0,19.46,10.13,33.78,23.78,33.78,10.8,0,17.78-6.57,21.21-19.85.08-.29.39-.46.67-.36l3.37,1.27ZM219.84,153.46c12.6,0,13.43-18.97.86-19.7-.34-.02-.68-.03-1.03-.03-9.05,0-15.94,7.7-18.11,19.73h18.28Z"/>
        <path class="cls-1" d="M270.06,128.87v6.23c0,2.12,2.63,3.05,4,1.43,4.51-5.35,9.9-8.61,14.51-8.61h3.53c.29,0,.53.24.53.53v15.22c0,.36-.35.61-.69.49-3.51-1.2-7.63-1.92-10.93-1.92-5.91,0-9.68,2.27-10.92,6.68-.01.05-.02.11-.02.16v41.81c0,4.2.36,8.15,2.32,12.21.17.35-.07.76-.46.76h-14.79c-.39,0-.63-.41-.46-.76,1.96-4.06,2.32-8.01,2.32-12.21v-41.48c0-4.31-.38-8.37-2.48-12.54-.12-.24-.05-.54.19-.68l12.57-7.77c.35-.22.8.04.8.45Z"/>
        <path class="cls-1" d="M.5,203.86c-.38,0-.61-.4-.45-.74,1.97-4.07,2.33-8.03,2.33-12.24v-48.64c0-4.21-.36-8.17-2.33-12.24-.16-.34.07-.74.45-.74h15.79c.38,0,.61.4.45.74-1.97,4.06-2.33,8.03-2.33,12.24v48.93c0,3.01,2.66,5.36,5.63,4.91,5.66-.86,7.62-3.75,14.5-13.11.29-.39.92-.18.92.3v20.07c0,.28-.23.51-.51.51H.5Z"/>
      </g>
      <path class="cls-1" d="M140.13,105.89c-.15,0-.3,0-.45-.02-.61-.04-1.22-.35-1.57-.82-.28-.37-.38-.82-.29-1.27.1-.45.43-.85.74-1.24.15-.19.35-.43.39-.54.74-1.88,1.15-3.93,1.56-6.22.16-1.02.14-2.07.12-3.17-.01-.81-.03-1.65.03-2.49,0-.41-.03-.87-.07-1.35-.05-.63-.1-1.29-.05-1.96.07-1.2-.15-2.41-.38-3.55-.12-.76-.18-1.5-.24-2.21-.06-.72-.13-1.47-.25-2.19-.22-1.18-.39-2.53-.56-3.97-.26-2.17-.53-4.42-1.04-6.15-.46-2.11-1.21-4.05-1.81-5.51-.55-1.73-1.01-2.35-1.34-3.25-.67-1.83-1.37-3.73-2.29-5.46l-.02-.04-.32-.89c-.4-1.14-.82-2.31-1.34-3.39-.33-.58-.66-1.22-.98-1.84-.51-.99-1.03-2.02-1.66-2.93-2.17-2.66-4.4-5.03-6.78-7.19-1.13-1.15-2.34-2.24-3.5-3.29l-.87-.79c-.36-.29-.77-.58-1.21-.88-.42-.29-.85-.58-1.26-.91-1.09-1.05-2.18-1.87-3.33-2.73-.37-.28-.74-.55-1.11-.84-1.69-1.52-3.6-2.76-5.45-3.95-.64-.41-1.28-.83-1.92-1.25-.87-.57-1.23-1.42-.98-2.27.27-.91,1.2-1.55,2.26-1.55.09,0,.18,0,.28.01.53.05,1.07.26,1.59.61,1.24.84,2.38,1.82,3.24,2.57,1,.72,1.94,1.56,2.8,2.35l.24.18c.8.61,1.63,1.25,2.38,1.97,1.02.97,2.18,1.85,3.3,2.7.86.65,1.74,1.33,2.58,2.05.43.34.85.71,1.27,1.1-.34-.56-.67-1.12-.96-1.69-.69-1.2-1.55-2.38-2.38-3.51-.41-.56-.82-1.12-1.21-1.69l-.41-.64c-1.38-2.15-2.81-4.36-4.43-6.35l-.04-.06c-.83-1.26-1.63-2.33-2.46-3.25l-.05-.06c-1.06-1.49-2.19-2.78-3.25-3.95-1.83-2.3-4.01-4.3-6.08-6.15-.27-.27-.58-.48-.9-.7-.61-.41-1.31-.88-1.66-1.7l-.02-.05v-.05c-.23-.86-.08-1.68.42-2.32.56-.72,1.49-1.14,2.51-1.14.89,0,1.71.32,2.31.91.61.61,1.02,1.33,1.42,2.03.29.52.57,1,.91,1.43.44.62.94,1.15,1.37,1.59.54.53.98,1.1,1.4,1.66.35.46.69.9,1.07,1.3l.03.03.02.03c1.02,1.37,1.99,2.73,2.97,4.1.85,1.19,1.71,2.38,2.6,3.59.18.25.4.48.63.72.23.24.46.48.67.76l.02.03.02.03c.64,1.07,1.34,2.05,2.13,3.01l.03.04.02.04c.73,1.17,1.51,2.33,2.27,3.45.59.86,1.17,1.73,1.74,2.61.62,1.06,1.23,2.09,1.85,3.12,1.41,2.36,2.87,4.79,4.12,7.31,2.53,4.04,4.62,8.61,6.3,12.28,1.98,4.27,6.36,14.93,7.31,19.42.11.5.25.99.38,1.48.49,1.88,1,3.82,1.27,5.82.31,1.25.48,2.87.63,4.31.05.45.09.88.14,1.27.35,1.67.44,3.46.52,5.2v.28c.15,2.38.16,4.56-.21,7.23.15-.21.3-.44.44-.67.25-.38.5-.78.78-1.11.2-.25.44-.56.7-.88.82-1.03,1.85-2.32,2.44-3.19.26-.36.87-1.19,1.54-2.09.98-1.32,2.09-2.82,2.39-3.27.28-.45.64-1.11.99-1.76.23-.43.45-.84.64-1.17.42-.75.86-1.36,1.29-1.95.52-.72,1.02-1.41,1.45-2.3l.02-.05.03-.04c1-1.45,1.88-2.98,2.74-4.46.29-.5.5-1.01.72-1.54.18-.44.37-.89.59-1.34.56-1.01,1.12-1.9,1.73-2.84l.47-.73c.93-1.9,2.39-3.42,3.8-4.89.34-.35.68-.7,1-1.06l.06-.05c2.07-1.78,4.5-3.26,6.62-4.5l.04-.02.05-.02c3.37-1.38,6.19-2.48,9.28-3.14.63-.21,1.29-.38,1.93-.54.65-.16,1.31-.33,1.95-.54.63-.25,1.81-.76,2.48-1.02,1.14-.45,3.57-.92,3.7-.61.22.51-.26.72-.59,1.29l-.04.07c-.25.33-.48.61-.71.89-.53.63-.82,1.42-1.05,2.16-.29.94-.49,1.47-.81,2.18-.19.43-.38.87-.59,1.3-2.68,5.61-6.38,8.94-11.66,10.49-1.57.42-3.22.61-4.82.79-1.89.21-3.84.43-5.6,1.03-3.14,1.52-5.59,3.74-6.9,6.27-.62,1.03-1.2,2.02-1.77,3.02-1.02,1.76-2.08,3.58-3.23,5.32-.77,1.39-5.75,8.42-6.44,9.33-.81,1.01-1.61,2.27-2.39,3.49-.47.75-.92,1.45-1.37,2.1-.39.54-.81,1.05-1.22,1.53-.47.56-.92,1.1-1.31,1.67-.38.48-.71.92-1.05,1.35-.4.52-.8,1.04-1.22,1.56-.45.52-1.04.76-1.83.76Z"/>
    </g>
  </g>
</svg>